<svg xmlns="http://www.w3.org/2000/svg" viewBox="0 0 1440 320"><path fill="#a2d2ff" fill-opacity="1" d="M0,96L26.7,80C53.3,64,107,32,160,37.3C213.3,43,267,85,320,128C373.3,171,427,213,480,218.7C533.3,224,587,192,640,154.7C693.3,117,747,75,800,96C853.3,117,907,203,960,245.3C1013.3,288,1067,288,1120,261.3C1173.3,235,1227,181,1280,144C1333.3,107,1387,85,1413,74.7L1440,64L1440,0L1413.3,0C1386.7,0,1333,0,1280,0C1226.7,0,1173,0,1120,0C1066.7,0,1013,0,960,0C906.7,0,853,0,800,0C746.7,0,693,0,640,0C586.7,0,533,0,480,0C426.7,0,373,0,320,0C266.7,0,213,0,160,0C106.7,0,53,0,27,0L0,0Z"></path></svg>