<svg xmlns="http://www.w3.org/2000/svg" viewBox="0 0 1440 320"><path fill="#a2d2ff" fill-opacity="1" d="M0,64L24,85.3C48,107,96,149,144,154.7C192,160,240,128,288,149.3C336,171,384,245,432,277.3C480,309,528,299,576,293.3C624,288,672,288,720,261.3C768,235,816,181,864,181.3C912,181,960,235,1008,234.7C1056,235,1104,181,1152,170.7C1200,160,1248,192,1296,192C1344,192,1392,160,1416,144L1440,128L1440,0L1416,0C1392,0,1344,0,1296,0C1248,0,1200,0,1152,0C1104,0,1056,0,1008,0C960,0,912,0,864,0C816,0,768,0,720,0C672,0,624,0,576,0C528,0,480,0,432,0C384,0,336,0,288,0C240,0,192,0,144,0C96,0,48,0,24,0L0,0Z"></path></svg>